<?xml version="1.0" encoding="utf-8"?>
<!-- Generator: Adobe Illustrator 22.1.0, SVG Export Plug-In . SVG Version: 6.00 Build 0)  -->
<svg version="1.1" id="Layer_1" xmlns="http://www.w3.org/2000/svg" xmlns:xlink="http://www.w3.org/1999/xlink" x="0px" y="0px"
	 viewBox="0 0 349.2 373" style="enable-background:new 0 0 349.2 373;" xml:space="preserve">
<style type="text/css">
	.st0{clip-path:url(#SVGID_2_);fill-rule:evenodd;clip-rule:evenodd;fill:#373435;}
	.st1{clip-path:url(#SVGID_2_);fill:none;stroke:#373435;stroke-width:0.5;stroke-miterlimit:2.613;}
	.st2{clip-path:url(#SVGID_2_);fill-rule:evenodd;clip-rule:evenodd;fill:#FFFFFF;}
	.st3{clip-path:url(#SVGID_2_);fill-rule:evenodd;clip-rule:evenodd;fill:#FDFDFD;}
	.st4{clip-path:url(#SVGID_2_);fill-rule:evenodd;clip-rule:evenodd;fill:#00AEEE;}
	.st5{clip-path:url(#SVGID_2_);fill:#FFFFFF;}
	.st6{clip-path:url(#SVGID_2_);fill:#373435;}
	.st7{clip-path:url(#SVGID_2_);fill:#00AEEE;}
</style>
<g>
	<defs>
		<rect id="SVGID_1_" width="349.2" height="373"/>
	</defs>
	<clipPath id="SVGID_2_">
		<use xlink:href="#SVGID_1_"  style="overflow:visible;"/>
	</clipPath>
	<path class="st0" d="M79.8,29.9c57.8-39.9,143.3-39.1,198.4,0l-22.9,118.2c55.6,9.6,93.6,28.8,93.6,50.9
		c0,31.7-78.1,57.4-174.3,57.4C78.3,256.4,0.3,230.7,0.3,199c0-22.9,40.8-42.7,99.8-51.9L79.8,29.9z"/>
	<path class="st1" d="M79.8,29.9c57.8-39.9,143.3-39.1,198.4,0l-22.9,118.2c55.6,9.6,93.6,28.8,93.6,50.9
		c0,31.7-78.1,57.4-174.3,57.4C78.3,256.4,0.3,230.7,0.3,199c0-22.9,40.8-42.7,99.8-51.9L79.8,29.9z"/>
	<path class="st2" d="M348.4,203.3c0.3,1.4,0.5,2.9,0.5,4.3c0,31.7-78.1,57.4-174.3,57.4c-96.3,0-174.3-25.7-174.3-57.4
		c0-1.5,0.2-2.9,0.5-4.3c6.7,29.7,82,53.1,173.8,53.1C266.4,256.4,341.7,233,348.4,203.3"/>
	<path class="st3" d="M248.5,74.8L248.5,74.8l-10.6,79.8l-21.8,4.5L226.4,77c-13.8,0.7-29.2,0.3-45.4-1.4c-32.7-3.4-62.1-11.3-82-21
		c20.3,6,47.4,9.7,77.2,9.7c28.7,0,54.9-3.4,74.9-9.1v0L248.5,74.8z"/>
	<path class="st4" d="M237.3,177.6c-10.4,8.1-32.5,13.7-58.2,13.7c-26.3,0-48.9-5.9-58.9-14.3v-14.3c14.5,4.9,35.5,8,58.9,8
		c23,0,43.8-3,58.2-7.8V177.6z"/>
	<polygon class="st2" points="59.1,104.8 63,117 75.8,117 65.4,124.5 69.4,136.7 59.1,129.1 48.7,136.7 52.7,124.5 42.3,117 
		55.1,117 	"/>
	<polygon class="st3" points="318.8,170.1 322.8,182.3 335.6,182.2 325.2,189.7 329.2,201.9 318.8,194.4 308.5,201.9 312.5,189.7 
		302.1,182.2 314.9,182.3 	"/>
	<polygon class="st2" points="20,116.3 24.6,122.9 32.3,120.5 27.4,126.9 32,133.5 24.4,130.9 19.6,137.3 19.8,129.2 12.2,126.6 
		19.9,124.3 	"/>
	<polygon class="st3" points="279.8,181.5 284.4,188.1 292.1,185.8 287.2,192.2 291.8,198.7 284.2,196.1 279.4,202.5 279.6,194.5 
		272,191.9 279.7,189.6 	"/>
	<polygon class="st2" points="42.9,79.8 43.6,87.8 51.5,89.5 44.1,92.7 44.9,100.7 39.6,94.6 32.2,97.8 36.3,90.9 31,84.9 
		38.8,86.7 	"/>
	<polygon class="st3" points="282.6,151 283.4,159 291.2,160.7 283.8,163.9 284.6,171.9 279.3,165.8 271.9,169 276,162.1 
		270.7,156.1 278.6,157.9 	"/>
	<polygon class="st5" points="89.4,297.4 82.3,319.1 65.8,319.1 61.6,304.5 61.6,324.8 24.7,325.9 26.1,229.8 65.3,228.2 
		76.3,263.9 91,225.8 131.9,225.8 125.5,327.3 89.3,328.9 	"/>
	<path class="st6" d="M128.1,229.3l-5.9,94.7l-29.4,1.3l0.3-49.9l-13.3,40.2H68.4l-10.2-36l-0.1,41.8l-29.8,0.9l1.3-89.1l33.2-1.3
		l13.2,42.7l17.5-45.3H128.1z M135.6,222.3h-7.5H93.4h-4.8l-1.7,4.5l-10.3,26.5l-7.2-23.4l-1.6-5.1l-5.4,0.2l-33.2,1.3l-6.6,0.3
		l-0.1,6.6l-1.3,89.1l-0.1,7.3l7.3-0.2l29.8-0.9l6.8-0.2l0-5.6h3.3h11.4h5.1l1-3l0,5.7l0,7.4l7.3-0.3l29.4-1.3l6.3-0.3l0.4-6.3
		l5.9-94.7L135.6,222.3z"/>
	<polygon class="st5" points="129.9,231 171.5,228.8 163.8,323.7 129.9,325.4 	"/>
	<path class="st6" d="M167.7,232.5l-7.1,87.8l-27.2,1.4v-87.5L167.7,232.5z M175.3,225.1l-8,0.4l-34.3,1.8l-6.6,0.3v6.6v87.5v7.4
		l7.4-0.4l27.2-1.4l6.1-0.3l0.5-6.1l7.1-87.9L175.3,225.1z"/>
	<polygon class="st5" points="167.9,325.8 170.4,227.5 208.2,225.7 225.2,261.1 226,228.5 263.5,227.2 258.5,321.5 219.1,325.1 
		205.9,290.8 203.8,325.8 	"/>
	<path class="st6" d="M206.1,229.3l22.3,46.4l1-43.9l30.4-1l-4.6,87.5l-33.8,3.1l-18.1-46.8l-2.8,47.7h-29l2.3-91.5L206.1,229.3z
		 M210.4,222l-4.6,0.2l-32.3,1.5l-6.5,0.3l-0.2,6.5l-2.3,91.5l-0.2,7.2h7.2h29h6.6l0.4-6.6l0.9-15.5l6.5,16.7l1.9,4.9l5.3-0.5
		l33.8-3.1l6-0.6l0.3-6l4.6-87.5l0.4-7.6l-7.6,0.3l-30.4,1l-6.6,0.2l-0.2,6.6l-0.3,14.7l-9.7-20.2L210.4,222z"/>
	<path class="st5" d="M276.5,326.3c-2.1,0-4.1-0.1-6.1-0.2c-2-0.1-4-0.3-6.1-0.5l-3.2-0.3L263,233l2.4-0.8c4.9-1.6,10-2.7,15.2-3.3
		c5.1-0.6,10.3-1,15.4-1c6.5,0,12.6,1,18.1,3c5.6,2,10.5,4.9,14.6,8.7c4.1,3.8,7.3,8.5,9.6,14c2.3,5.4,3.4,11.6,3.4,18.4
		c0,6.4-0.8,12.2-2.5,17.4c-1.7,5.2-4,9.9-7,13.9c-3,4-6.6,7.6-10.7,10.5c-4,2.9-8.5,5.3-13.4,7.1c-4.8,1.8-9.9,3.2-15.2,4.1
		C287.6,325.9,282.1,326.3,276.5,326.3 M298.1,293.4c0.5-0.2,0.9-0.5,1.4-0.8c1.8-1.1,3.3-2.5,4.6-4c1.3-1.6,2.3-3.4,3-5.4
		c0.7-2,1.1-4,1.2-6.1v-0.8c0-2.1-0.2-4-0.6-5.9c-0.4-1.7-1.1-3.2-2.1-4.5c-0.9-1.2-2.1-2.2-3.5-3c-0.6-0.3-1.2-0.6-1.9-0.7
		L298.1,293.4z"/>
	<path class="st6" d="M296,231.5c6.1,0,11.8,0.9,17,2.8c5.2,1.9,9.6,4.5,13.4,8c3.7,3.5,6.7,7.7,8.7,12.8c2.1,5,3.1,10.7,3.1,17.1
		c0,6-0.8,11.4-2.3,16.3c-1.5,4.8-3.7,9.1-6.5,12.9c-2.8,3.8-6.1,7-9.9,9.7c-3.8,2.7-8,4.9-12.6,6.7c-4.6,1.7-9.4,3-14.5,3.9
		c-5.1,0.8-10.4,1.3-15.8,1.3c-2,0-4-0.1-5.9-0.2c-1.9-0.1-3.9-0.3-5.9-0.5l1.8-86.6c4.7-1.5,9.6-2.6,14.6-3.2
		C286,231.8,291,231.5,296,231.5 M294.3,298.1c2.6-0.4,4.9-1.2,7-2.5c2.1-1.3,3.9-2.9,5.5-4.8c1.5-1.9,2.7-4,3.5-6.4
		c0.8-2.3,1.3-4.8,1.4-7.3v-0.9c0-2.3-0.2-4.6-0.7-6.7c-0.5-2.1-1.4-4.1-2.6-5.7c-1.2-1.7-2.8-3-4.7-4c-1.9-1-4.1-1.6-6.8-1.6
		L294.3,298.1 M296,224.5c-5.2,0-10.5,0.3-15.8,1c-5.4,0.7-10.7,1.8-15.9,3.5l-4.8,1.5l-0.1,5l-1.8,86.6l-0.1,6.4l6.4,0.7
		c2.1,0.2,4.2,0.4,6.3,0.5c2,0.1,4.2,0.2,6.3,0.2c5.8,0,11.5-0.5,17-1.3c5.6-0.9,10.9-2.3,15.9-4.2c5.1-1.9,9.8-4.5,14.1-7.5
		c4.4-3.1,8.3-6.9,11.5-11.3c3.2-4.4,5.7-9.4,7.5-14.9c1.8-5.5,2.7-11.7,2.7-18.4c0-7.3-1.2-13.9-3.7-19.8
		c-2.5-5.9-6-11.1-10.4-15.2c-4.4-4.1-9.7-7.3-15.8-9.5C309.4,225.5,302.9,224.5,296,224.5 M302.1,285.2l1.1-16.5
		c0.4,0.7,0.7,1.5,1,2.5c0.4,1.5,0.6,3.2,0.5,4.9l0,0.1v0.1v0.8c-0.1,1.7-0.4,3.4-1,5C303.3,283.2,302.8,284.2,302.1,285.2"/>
	<path class="st6" d="M107.3,331c0.2,1.5,0.2,2.9,0.1,4.2c-0.1,1.3-0.4,2.5-0.9,3.6c-0.5,1.1-1.1,2.2-1.9,3.2c-0.8,1-1.8,2-3,3
		c3,3.8,5.9,7.6,8.8,11.5c-4.3,1.4-8.6,2.9-12.9,4.4c-2.1-3.9-4.3-7.8-6.5-11.7c-1.2,0.2-2.5,0.5-3.7,0.7c0.5,4.1,1,8.1,1.5,12.2
		c-4.2,0.7-8.4,1.5-12.6,2.3c-0.7-4.4-1.5-8.8-2.2-13.2c-0.7-4.4-1.5-8.8-2.2-13.2c-0.4-2.2-0.8-4.4-1.1-6.6c-0.4-2.2-0.7-4.4-1-6.7
		c1.4-0.8,2.7-1.5,4.1-2.1c1.4-0.6,2.8-1.1,4.2-1.5c1.4-0.4,2.9-0.8,4.3-1.1c1.5-0.3,3-0.6,4.6-0.8c2.4-0.4,4.8-0.4,7.1-0.1
		c2.3,0.3,4.5,0.9,6.3,1.9c1.9,1,3.5,2.3,4.7,4C106.2,326.4,107,328.5,107.3,331 M93.6,333.8c-0.1-0.8-0.4-1.5-0.7-2.2
		c-0.3-0.6-0.8-1.2-1.3-1.6c-0.5-0.4-1.2-0.7-1.9-0.9c-0.7-0.2-1.6-0.2-2.5,0c-0.4,0.1-0.8,0.2-1.2,0.3s-0.8,0.2-1.1,0.4
		c0.4,3.6,0.9,7.3,1.3,10.9c0.2,0,0.5-0.1,0.7-0.1c0.9-0.1,1.7-0.4,2.6-0.8c0.9-0.4,1.6-0.8,2.3-1.4c0.7-0.6,1.2-1.2,1.5-2
		C93.6,335.6,93.7,334.8,93.6,333.8"/>
	<path class="st6" d="M139.2,313.7c0,1.9,0,3.7,0,5.5c0,1.8,0,3.6,0,5.5c-4.4,0.5-8.8,1.1-13.2,1.7c0,1.2,0,2.5,0,3.7
		c3.1-0.3,6.2-0.6,9.2-0.8c0,3.1,0,6.1,0,9.2c-3,0.3-6.1,0.7-9.1,1.1c0,1.4,0.1,2.9,0.1,4.3c2.5-0.2,5-0.5,7.5-0.7
		c1.8-0.1,3.6-0.3,5.3-0.4c0,2.2,0.1,4.3,0.1,6.5c0,2.1,0.1,4.3,0.1,6.4c-8.5,0.8-17,1.8-25.4,3.1c-1.4-14.1-2.7-28.2-4.1-42.4
		C119.6,315.3,129.4,314.4,139.2,313.7"/>
	<path class="st6" d="M181.7,352.3c-4.9,0.6-9.8,1.3-14.7,2c-0.6-2.2-1.3-4.4-2-6.6c-2.3,0.1-4.6,0.1-6.8,0.2
		c-0.4,2.2-0.8,4.5-1.2,6.7c-5.1-0.3-10.1-0.5-15.2-0.6c3-13.3,6.3-26.7,9.9-40c5.9-0.6,12.2-0.9,18.5-1.2
		C174.5,326,177.8,339,181.7,352.3 M163.7,338.7c-0.9-3.4-1.8-6.8-2.7-10.2c-0.7,3.4-1.3,6.9-1.9,10.3
		C160.6,338.8,162.1,338.8,163.7,338.7"/>
	<path class="st6" d="M218.6,332.6c-0.2,2.7-0.7,5.2-1.6,7.4c-0.9,2.2-2,4.1-3.4,5.7c-1.4,1.6-3,3-4.9,4.2c-1.8,1.1-3.8,2.1-6,2.8
		c-2.1,0.7-4.4,1.2-6.8,1.5c-2.4,0.3-4.8,0.5-7.3,0.4c-0.9,0-1.8-0.1-2.7-0.1c-0.9-0.1-1.8-0.1-2.7-0.2c0.3-13.2,0.7-26.4,1.1-39.6
		c2.3-0.7,4.7-1.1,7.2-1.4c2.5-0.2,4.9-0.3,7.4-0.2c3,0.1,5.8,0.6,8.3,1.6c2.5,1,4.6,2.3,6.4,4c1.7,1.7,3,3.7,3.9,6.1
		C218.5,327.1,218.8,329.7,218.6,332.6 M205.9,333.8c0.1-1.1,0-2.1-0.2-3.1c-0.2-1-0.6-1.9-1.2-2.7c-0.6-0.8-1.3-1.4-2.2-1.9
		c-0.9-0.5-2-0.8-3.3-0.9c-0.6,6.1-1.2,12.2-1.8,18.3c1.2-0.1,2.3-0.5,3.3-1.1c1-0.6,1.9-1.3,2.6-2.1c0.8-0.8,1.4-1.8,1.8-2.8
		c0.4-1.1,0.7-2.2,0.8-3.3C205.9,334.1,205.9,334,205.9,333.8"/>
	<path class="st6" d="M253.2,316.7c-0.4,1.8-0.7,3.6-1,5.4c-0.3,1.8-0.7,3.6-1.1,5.4c-4.4-0.3-8.9-0.6-13.3-0.8
		c-0.2,1.2-0.4,2.4-0.7,3.7c3.1,0.3,6.2,0.6,9.2,1c-0.6,3-1.1,6-1.7,9c-3.1-0.2-6.1-0.5-9.2-0.7c-0.2,1.4-0.5,2.8-0.7,4.3
		c2.5,0.2,5,0.5,7.5,0.8c1.8,0.2,3.5,0.4,5.3,0.6c-0.4,2.1-0.8,4.3-1.1,6.4c-0.4,2.1-0.7,4.2-1.1,6.3c-8.5-0.8-17-1.4-25.5-1.8
		c1.3-14.1,2.7-28.3,4-42.4C233.7,314.5,243.5,315.5,253.2,316.7"/>
	<path class="st6" d="M290,336.7c-0.3,1.5-0.7,2.8-1.2,4c-0.5,1.2-1.2,2.2-1.9,3.1c-0.8,0.9-1.7,1.7-2.8,2.4
		c-1.1,0.7-2.4,1.3-3.8,1.9c1.7,4.5,3.3,9.1,4.8,13.6c-4.6,0-9.1,0.1-13.7,0.2c-0.8-4.4-1.7-8.8-2.6-13.2c-1.2-0.2-2.5-0.3-3.7-0.5
		c-0.8,4-1.6,8-2.4,12.1c-4.2-0.6-8.4-1.2-12.7-1.7c0.7-4.4,1.3-8.9,2-13.3c0.6-4.4,1.3-8.8,2-13.3c0.3-2.2,0.7-4.5,1-6.7
		c0.3-2.2,0.7-4.4,1.1-6.6c1.5-0.3,3.1-0.5,4.5-0.7c1.5-0.1,3-0.2,4.4-0.2c1.5,0,3,0.1,4.5,0.3c1.5,0.2,3,0.4,4.6,0.6
		c2.4,0.4,4.7,1.1,6.8,2.1c2.1,1,4,2.3,5.5,3.8c1.5,1.5,2.6,3.3,3.3,5.3C290.4,332.1,290.5,334.3,290,336.7 M276.1,335.2
		c0.1-0.8,0.1-1.6,0-2.3c-0.1-0.7-0.4-1.4-0.8-1.9c-0.4-0.6-0.9-1.1-1.6-1.4c-0.6-0.4-1.4-0.7-2.4-0.8c-0.4-0.1-0.8-0.1-1.2-0.1
		c-0.4,0-0.8,0-1.2,0c-0.7,3.6-1.4,7.2-2.1,10.8c0.2,0,0.5,0.1,0.7,0.1c0.9,0.1,1.8,0.2,2.7,0.1c0.9-0.1,1.8-0.3,2.6-0.6
		c0.8-0.3,1.5-0.8,2.1-1.4C275.5,337,275.9,336.2,276.1,335.2"/>
	<path class="st6" d="M296.8,327.7c-1-3.1-2.7-5.8-5-8.1c-2.1-2.2-4.7-4-7.7-5.3c-2.8-1.3-5.7-2.2-8.8-2.7c-1.7-0.3-3.4-0.5-5-0.7
		c-1.7-0.2-3.4-0.3-5.1-0.3c-1.1,0-2.1,0-3.2,0.1l0.1-0.4l-8-1c-9.8-1.2-19.8-2.2-29.7-2.9l-7.3-0.5l-0.5,5.5
		c-2-1.5-4.2-2.7-6.6-3.6c-3.3-1.3-6.9-2-10.8-2.1c-2.7-0.1-5.6,0-8.3,0.3c-2.9,0.3-5.8,0.8-8.6,1.6l-5.3,1.5l-1.6-3.9l-73.8,4.8
		l0.3,3.4c-2.2-1-4.7-1.6-7.2-1.9c-3-0.4-6.1-0.3-9.2,0.2c-1.7,0.3-3.3,0.6-5,0.9c-1.7,0.4-3.4,0.8-5,1.3c-1.7,0.5-3.3,1.1-4.9,1.8
		c-1.6,0.7-3.3,1.5-4.9,2.4l-4.4,2.5l0.7,5c0.3,2.3,0.7,4.7,1,6.9l1.1,6.6c0.7,4.4,1.4,8.9,2.2,13.3c0.7,4.4,1.5,8.8,2.2,13.2
		L70,373l7.5-1.4c4.1-0.8,8.3-1.5,12.4-2.2l3.3-0.6l6.7-1c2.3-0.8,4.7-1.6,7-2.4l0.2,2l7.8-1.1c8.3-1.2,16.7-2.2,25.1-3
		c0,0,13.3-1.2,16.5-1.1c0,0,16.6-1.2,19.1-1.5l0,0.3l6.9,0.8c1.1,0.1,2.1,0.2,3.1,0.3c1,0.1,2.1,0.1,3.1,0.1c0.3,0,0.6,0,0.9,0
		c2.6,0,5.1-0.2,7.5-0.5c2.8-0.4,5.6-1,8.1-1.9c2.5-0.8,4.9-1.9,7.1-3.3l-0.6,6.8l7.8,0.4c7.5,0.4,15,0.9,22.5,1.5l7.1,0.9
		c4.1,0.5,8.3,1.1,12.5,1.7l3.3,0.5l0.2,1.3l6.4-0.2c4.5-0.1,9-0.2,13.5-0.2l10.5,0l-3.4-9.9c-0.9-2.6-1.8-5.1-2.7-7.7
		c1.1-0.9,2.2-1.8,3.1-2.9c1.3-1.5,2.3-3.2,3.1-5c0.7-1.7,1.3-3.6,1.7-5.6l0,0C298.1,334.4,297.9,330.9,296.8,327.7 M118.5,323
		l0,5.3c-0.2-1.7-0.3-3.5-0.5-5.2C118.2,323,118.3,323,118.5,323 M191.6,324.4c0-1.2,0.1-2.4,0.1-3.6l0.3,0L191.6,324.4z M230.2,327
		c0.2-1.7,0.3-3.4,0.5-5.1c0.1,0,0.3,0,0.4,0L230.2,327z"/>
	<rect x="71.7" y="233.9" class="st0" width="9.2" height="19.8"/>
	<rect x="299" y="265.6" class="st0" width="7.3" height="21.8"/>
	<path class="st7" d="M107.3,331c0.2,1.5,0.2,2.9,0.1,4.2c-0.1,1.3-0.4,2.5-0.9,3.6c-0.5,1.1-1.1,2.2-1.9,3.2c-0.8,1-1.8,2-3,3
		c3,3.8,5.9,7.6,8.8,11.5c-4.3,1.4-8.6,2.9-12.9,4.4c-2.1-3.9-4.3-7.8-6.5-11.7c-1.2,0.2-2.5,0.5-3.7,0.7c0.5,4.1,1,8.1,1.5,12.2
		c-4.2,0.7-8.4,1.5-12.6,2.3c-0.7-4.4-1.5-8.8-2.2-13.2c-0.7-4.4-1.5-8.8-2.2-13.2c-0.4-2.2-0.8-4.4-1.1-6.6c-0.4-2.2-0.7-4.4-1-6.7
		c1.4-0.8,2.7-1.5,4.1-2.1c1.4-0.6,2.8-1.1,4.2-1.5c1.4-0.4,2.9-0.8,4.3-1.1c1.5-0.3,3-0.6,4.6-0.8c2.4-0.4,4.8-0.4,7.1-0.1
		c2.3,0.3,4.5,0.9,6.3,1.9c1.9,1,3.5,2.3,4.7,4C106.2,326.4,107,328.5,107.3,331 M93.6,333.8c-0.1-0.8-0.4-1.5-0.7-2.2
		c-0.3-0.6-0.8-1.2-1.3-1.6c-0.5-0.4-1.2-0.7-1.9-0.9c-0.7-0.2-1.6-0.2-2.5,0c-0.4,0.1-0.8,0.2-1.2,0.3s-0.8,0.2-1.1,0.4
		c0.4,3.6,0.9,7.3,1.3,10.9c0.2,0,0.5-0.1,0.7-0.1c0.9-0.1,1.7-0.4,2.6-0.8c0.9-0.4,1.6-0.8,2.3-1.4c0.7-0.6,1.2-1.2,1.5-2
		C93.6,335.6,93.7,334.8,93.6,333.8"/>
	<path class="st7" d="M139.2,313.7c0,1.9,0,3.7,0,5.5c0,1.8,0,3.6,0,5.5c-4.4,0.5-8.8,1.1-13.2,1.7c0,1.2,0,2.5,0,3.7
		c3.1-0.3,6.2-0.6,9.2-0.8c0,3.1,0,6.1,0,9.2c-3,0.3-6.1,0.7-9.1,1.1c0,1.4,0.1,2.9,0.1,4.3c2.5-0.2,5-0.5,7.5-0.7
		c1.8-0.1,3.6-0.3,5.3-0.4c0,2.2,0.1,4.3,0.1,6.5c0,2.1,0.1,4.3,0.1,6.4c-8.5,0.8-17,1.8-25.4,3.1c-1.4-14.1-2.7-28.2-4.1-42.4
		C119.6,315.3,129.4,314.4,139.2,313.7"/>
	<path class="st7" d="M181.7,352.3c-4.9,0.6-9.8,1.3-14.7,2c-0.6-2.2-1.3-4.4-2-6.6c-2.3,0.1-4.6,0.1-6.8,0.2
		c-0.4,2.2-0.8,4.5-1.2,6.7c-5.1-0.3-10.1-0.5-15.2-0.6c3-13.3,6.3-26.7,9.9-40c5.9-0.6,11.8-1,17.7-1.4
		C173.7,325.8,177.8,339,181.7,352.3 M163.7,338.7c-0.9-3.4-1.8-6.8-2.7-10.2c-0.7,3.4-1.3,6.9-1.9,10.3
		C160.6,338.8,162.1,338.8,163.7,338.7"/>
	<path class="st7" d="M218.6,332.6c-0.2,2.7-0.7,5.2-1.6,7.4c-0.9,2.2-2,4.1-3.4,5.7c-1.4,1.6-3,3-4.9,4.2c-1.8,1.1-3.8,2.1-6,2.8
		c-2.1,0.7-4.4,1.2-6.8,1.5c-2.4,0.3-4.8,0.5-7.3,0.4c-0.9,0-1.8-0.1-2.7-0.1c-0.9-0.1-1.8-0.1-2.7-0.2c0.3-13.2,0.7-26.4,1.1-39.6
		c2.3-0.7,4.7-1.1,7.2-1.4c2.5-0.2,4.9-0.3,7.4-0.2c3,0.1,5.8,0.6,8.3,1.6c2.5,1,4.6,2.3,6.4,4c1.7,1.7,3,3.7,3.9,6.1
		C218.5,327.1,218.8,329.7,218.6,332.6 M205.9,333.8c0.1-1.1,0-2.1-0.2-3.1c-0.2-1-0.6-1.9-1.2-2.7c-0.6-0.8-1.3-1.4-2.2-1.9
		c-0.9-0.5-2-0.8-3.3-0.9c-0.6,6.1-1.2,12.2-1.8,18.3c1.2-0.1,2.3-0.5,3.3-1.1c1-0.6,1.9-1.3,2.6-2.1c0.8-0.8,1.4-1.8,1.8-2.8
		c0.4-1.1,0.7-2.2,0.8-3.3C205.9,334.1,205.9,334,205.9,333.8"/>
	<path class="st7" d="M253.2,316.7c-0.4,1.8-0.7,3.6-1,5.4c-0.3,1.8-0.7,3.6-1.1,5.4c-4.4-0.3-8.9-0.6-13.3-0.8
		c-0.2,1.2-0.4,2.4-0.7,3.7c3.1,0.3,6.2,0.6,9.2,1c-0.6,3-1.1,6-1.7,9c-3.1-0.2-6.1-0.5-9.2-0.7c-0.2,1.4-0.5,2.8-0.7,4.3
		c2.5,0.2,5,0.5,7.5,0.8c1.8,0.2,3.5,0.4,5.3,0.6c-0.4,2.1-0.8,4.3-1.1,6.4c-0.4,2.1-0.7,4.2-1.1,6.3c-8.5-0.8-17-1.4-25.5-1.8
		c1.3-14.1,2.7-28.3,4-42.4C233.7,314.5,243.5,315.5,253.2,316.7"/>
	<path class="st7" d="M290,336.7c-0.3,1.5-0.7,2.8-1.2,4c-0.5,1.2-1.2,2.2-1.9,3.1c-0.8,0.9-1.7,1.7-2.8,2.4
		c-1.1,0.7-2.4,1.3-3.8,1.9c1.7,4.5,3.3,9.1,4.8,13.6c-4.6,0-9.1,0.1-13.7,0.2c-0.8-4.4-1.7-8.8-2.6-13.2c-1.2-0.2-2.5-0.3-3.7-0.5
		c-0.8,4-1.6,8-2.4,12.1c-4.2-0.6-8.4-1.2-12.7-1.7c0.7-4.4,1.3-8.9,2-13.3c0.6-4.4,1.3-8.8,2-13.3c0.3-2.2,0.7-4.5,1-6.7
		c0.3-2.2,0.7-4.4,1.1-6.6c1.5-0.3,3.1-0.5,4.5-0.7c1.5-0.1,3-0.2,4.4-0.2c1.5,0,3,0.1,4.5,0.3c1.5,0.2,3,0.4,4.6,0.6
		c2.4,0.4,4.7,1.1,6.8,2.1c2.1,1,4,2.3,5.5,3.8c1.5,1.5,2.6,3.3,3.3,5.3C290.4,332.1,290.5,334.3,290,336.7 M276.1,335.2
		c0.1-0.8,0.1-1.6,0-2.3c-0.1-0.7-0.4-1.4-0.8-1.9c-0.4-0.6-0.9-1.1-1.6-1.4c-0.6-0.4-1.4-0.7-2.4-0.8c-0.4-0.1-0.8-0.1-1.2-0.1
		c-0.4,0-0.8,0-1.2,0c-0.7,3.6-1.4,7.2-2.1,10.8c0.2,0,0.5,0.1,0.7,0.1c0.9,0.1,1.8,0.2,2.7,0.1c0.9-0.1,1.8-0.3,2.6-0.6
		c0.8-0.3,1.5-0.8,2.1-1.4C275.5,337,275.9,336.2,276.1,335.2"/>
	<path class="st2" d="M38.1,208.8c0.3-0.1,0.7-0.1,1-0.2c3.2-0.8,5.5-4.1,5.5-7.8c0-3.9-2.6-6.4-6.5-6.2V208.8z M38.1,210.5
		c0,0-0.1,5,0.3,6.6c0.5,1.8,1.2,2.8,1.2,2.8l-0.3,0.1c-1.5,0.3-5.1,1.2-6.3,1.5l-0.5,0.2l0.2-0.5c0.5-1.4,0.6-1.9,0.7-3
		c0-0.6,0.1-1.1,0.1-2.5v-1v-18.6c-0.8-0.1-1.1-0.6-1.3-1.4l0-0.2l0.2-0.1c1.4-0.8,2.9-1.5,4.6-1.9c3.1-0.8,5.5-0.7,7.4,0.2
		c2.8,1.4,4.7,4.5,4.7,7.6c0,3.4-2,6.8-5.5,9.3c0.9,0.5,1.9,1.6,2.9,2.8c1.3,1.5,4.4,7.5,7.1,7.5c1.2,0,1.3-0.7,1.3-0.7l1.1,0
		c0,0-0.9,3-4.7,3.7c-1.2,0.2-2.5,0.1-3.4-0.5c-0.9-0.6-1.3-1.1-3.1-3.2c-1.2-1.5-3.4-4.3-4.6-5.9c-0.6-0.8-1.1-1.5-1.6-2
		C38.4,210.8,38.3,210.6,38.1,210.5"/>
	<path class="st2" d="M58.6,216.2l0.2,0.5l-0.5,0c-0.8,0-1.6,0-2.4,0.1c-0.6,0.1-1.9,0.3-2.5,0.4l-0.5,0.1l0.2-0.5
		c1.2-2.4,0.6-12,0.2-14.2l0-0.2l0.2-0.1c1.2-0.6,2.9-1.2,4.2-1.3l0.4-0.1C58.1,200.9,57.4,214,58.6,216.2 M58.2,197.2
		c0,1.2-1.4,2.1-2.8,2.2c-1.3,0.1-2.5-0.8-2.5-1.9c0-1.3,1.3-2.2,2.8-2.3C57,195.1,58.2,196,58.2,197.2"/>
	<path class="st2" d="M87.9,210c0,0.1,0,1.1,0.1,2.7c0.1,3.4,0.2,3.5,1.8,4l0.4,0.1l-0.3,0.3c-0.8,0.9-1.5,1.2-2.6,1.1
		c-1.3-0.1-2.3-0.8-3.1-2.1c-1.2,1.1-2.7,1.6-4.4,1.4c-3.2-0.3-6.1-3.2-6.1-6.2c0-3.6,3.2-6.5,6.8-6.2c1,0.1,1.8,0.3,3.2,1
		c-0.1-3.3-1.2-4.7-3.1-4.9c-0.8-0.1-1.2,0.1-2.5,1c-0.2,0.2-0.6,0.3-0.9,0.2c-0.8-0.1-1.6-0.7-1.6-1.4c0-1.3,2.2-1.9,4.3-1.7
		c3.2,0.3,6.1,1.8,7.2,4c0.4,0.9,0.7,1.8,0.7,3.6V210z M83.8,208.2c-0.8-0.7-1.8-1.1-2.7-1.2c-2.2-0.2-3.5,1-3.5,3.1
		c0,2.8,1.8,5.2,3.7,5.4c1.7,0.2,2.6-0.8,2.6-3.3C83.9,211.7,83.8,208.2,83.8,208.2"/>
	<path class="st2" d="M89.3,201.5l0.3-0.2c0.8-0.6,1.4-1.4,1.6-2.2c-0.2,0-0.3,0-0.5,0c-1-0.2-1.6-1-1.6-2.1c0-1.2,0.9-1.9,2.1-1.7
		c1.3,0.2,2.1,1.5,2.1,3.1c0,1.6-0.9,3-2.4,4.1l-0.2,0.1L89.3,201.5z"/>
	<path class="st2" d="M94.4,215l0,0.1c0,0.1,0,0.2,0,0.4c0,1.6,1.3,3.1,3.1,3.6c1.7,0.4,2.9-0.4,2.9-1.7c0-1-0.6-1.9-2.3-3.4
		c-2.2-1.8-2.8-2.3-3.6-3.1c-1.5-1.4-2.2-2.8-2.2-4.4c0-2.8,2.6-4.3,5.7-3.5c1.7,0.4,3.7,1.8,4.8,3.3l0.1,0.1l-0.1,0.2
		c-0.5,0.9-1.3,1.9-1.8,2.3l-0.1,0.1l-1-0.4l0-0.2c0-0.3,0-0.4,0-0.7c0-1.3-0.9-2.4-2.3-2.7c-1.1-0.3-1.8,0.3-1.8,0.9
		c0,0.8,0.3,1.3,2.5,3c1.5,1.2,2.4,1.9,3,2.4c0.6,0.5,0.9,0.8,1.3,1.3c1.1,1.3,1.5,2.5,1.5,3.8c0,3.4-3.4,5.3-7.1,4.3
		c-2.7-0.7-4.8-2.5-5.9-5.1l-0.1-0.2l0.2-0.1c1-0.7,2.8-0.9,2.8-0.9L94.4,215z"/>
	<path class="st2" d="M67,212.6c0,1.7,0.4,2.1,0.9,2.1c0.8,0,1.5-0.7,1.5-1.7c0-0.5,0-0.7-0.2-1.1l-0.2-0.5l0.5,0.1
		c0.9,0.1,1.5,0.2,2.4,0.5l0.2,0.1l0,0.2c-0.1,2.7-1.9,4.5-4.5,4.5c-2.3,0-3.8-1-4.2-2.9c-0.2-0.6-0.2-1.3-0.2-2.6v-8.7
		c-0.4-0.1-0.6-0.1-0.8-0.1c-0.5,0-0.7,0.2-1.1,0.7l-0.1,0.2l-0.9-0.2l0-0.2c0.1-1.5,1.1-2.5,2.7-2.7c0-0.1,0-0.3-0.1-0.9
		c0-0.4,0-0.6-0.1-1.4l0-0.2l0.2-0.1c1.4-0.8,2.9-1.5,4.1-1.9l0.4-0.1l0,0.4c-0.1,1.7-0.2,2.8-0.2,3.6c0,0.3,0,0.4,0,1.1
		c1.1,0.3,2.1,0.3,2.5,0.2c0.8-0.1,1.4-0.3,2-0.9l0.1-0.1l1,0.4l-0.2,0.3c-1,1.7-2.2,2.6-3.8,2.7c-0.3,0-1.2,0-1.8,0V212.6z"/>
	<path class="st2" d="M257.8,179.6c-0.1,0.2-0.2,0.4-0.3,0.6c-0.5,6.2-5.3,11.2-13.2,15.1c-18.2,11.8-50.2,15.4-80.6,15.4
		c-14.2,0-31.7-1.6-49.3-4.8c15.2,6.5,38.8,10.7,65.4,10.7c45.8,0,82.9-12.4,82.9-27.7C262.7,185.7,261,182.5,257.8,179.6"/>
</g>
</svg>
