<?xml version="1.0" encoding="utf-8"?>
<!-- Generator: Adobe Illustrator 22.1.0, SVG Export Plug-In . SVG Version: 6.00 Build 0)  -->
<svg version="1.1" id="Layer_1" xmlns="http://www.w3.org/2000/svg" xmlns:xlink="http://www.w3.org/1999/xlink" x="0px" y="0px"
	 viewBox="0 0 355 309" style="enable-background:new 0 0 355 309;" xml:space="preserve">
<style type="text/css">
	.st0{clip-path:url(#SVGID_2_);}
	.st1{clip-path:url(#SVGID_4_);fill:#FFFFFF;}
	.st2{clip-path:url(#SVGID_4_);fill:#8CD2F4;}
	.st3{clip-path:url(#SVGID_4_);fill-rule:evenodd;clip-rule:evenodd;fill:#D11E48;}
	.st4{clip-path:url(#SVGID_4_);fill:#D31245;}
	.st5{clip-path:url(#SVGID_4_);fill:#00703C;}
	.st6{clip-path:url(#SVGID_4_);fill:#231F20;}
	.st7{clip-path:url(#SVGID_4_);fill-rule:evenodd;clip-rule:evenodd;fill:#231F20;}
	.st8{clip-path:url(#SVGID_4_);fill-rule:evenodd;clip-rule:evenodd;fill:#FFFFFF;}
	.st9{clip-path:url(#SVGID_4_);}
	.st10{clip-path:url(#SVGID_6_);fill:#B1B4B5;}
</style>
<g>
	<defs>
		<rect id="SVGID_1_" width="355" height="309"/>
	</defs>
	<clipPath id="SVGID_2_">
		<use xlink:href="#SVGID_1_"  style="overflow:visible;"/>
	</clipPath>
	<g class="st0">
		<defs>
			<rect id="SVGID_3_" width="355" height="309"/>
		</defs>
		<clipPath id="SVGID_4_">
			<use xlink:href="#SVGID_3_"  style="overflow:visible;"/>
		</clipPath>
		<path class="st1" d="M27.4,154.5C27.4,71.4,94.8,4,177.9,4s150.5,67.4,150.5,150.5c0,83.1-67.4,150.5-150.5,150.5
			S27.4,237.7,27.4,154.5"/>
		<path class="st2" d="M23.4,154.5C23.4,69.2,92.5,0,177.9,0s154.5,69.2,154.5,154.5S263.2,309,177.9,309S23.4,239.9,23.4,154.5
			 M177.9,301c80.9,0,146.5-65.6,146.5-146.5C324.4,73.6,258.8,8,177.9,8S31.4,73.6,31.4,154.5C31.4,235.4,97,301,177.9,301"/>
		<path class="st3" d="M252.9,44.8c0.1-0.1,0.2-0.1,0.3-0.2L252.9,44.8L252.9,44.8z"/>
		<path class="st4" d="M250.8,269.5V39.5c38,24.2,63.3,66.6,63.3,115S288.8,245.4,250.8,269.5"/>
		<path class="st4" d="M208.9,21.9v265.3c-10,2.3-20.3,3.5-31,3.5c-10.4,0-20.5-1.2-30.2-3.3l-0.8-265.5c9.9-2.3,20.3-3.5,30.9-3.5
			C188.6,18.3,198.9,19.6,208.9,21.9"/>
		<path class="st4" d="M105.2,39.4v230.3C67,245.5,41.7,203,41.7,154.5C41.7,106.1,67,63.5,105.2,39.4"/>
		<path class="st5" d="M320.8,222.7c-0.7,17.4-5.6,33.2-31.9,25.9c-32-7.6-71.7-13-110.2-13.3h-0.2c-9.8,0.1-19.6,0.5-29.4,1.1
			c-0.4,0-16.2,1.7-18.5-18.6c-1.8,0.7-3.8,1.2-6,1.6c-5.3,0.9-12.7,0.8-18.6-3.1c-3.6-2.4-5.8-4.7-9.8-9.4
			c-34.4,5.6-64.1,14.3-80.6,25.2c0,0-10.2,5.7,0.4,12.9c0,0-9-1.8-10-12.4c-1.9-20.7-4.2-54.7-6-82.1c-0.9-13.6,19.2-25.1,46.5-33
			c-2-2.1-3.1-4.8-3.7-7.3l-1.5-6.4l7-3.7c5.8-3.6,12.5-6.3,19.2-8.1c12.2-3.1,23.4-3.3,33.1,1.5c5.2,2.6,9.7,6.3,13.3,10.8
			c22.2-2.7,44.5-4.1,63.7-3.9c23.5-0.2,51.8,1.9,78.8,6c3.2-3.5,8.1-5.2,13.5-4.3c5.7,1,9.6,4.5,11.9,8.8
			c41.4,8.6,74.5,22.2,73.3,39.5c-1.8,27.4-4.1,61.4-6,82.1c-1,10.6-10,12.4-10,12.4c10.6-7.2,0.4-12.9,0.4-12.9
			C334.4,228.7,328.1,225.6,320.8,222.7"/>
		<path class="st6" d="M38.4,221.1c5,10.5,10.9,20.1,18.1,29.2c-13.1-0.7-31.8-1.8-40.5-5.3c-10.6-7.2-0.4-12.9-0.4-12.9
			C21.6,228.1,29.3,224.4,38.4,221.1"/>
		<path class="st6" d="M339,245c-13.3,5.3-35.5,5.4-37.2,5.4c15.1-0.7,18.4-13.7,19-27.7c7.3,2.9,13.6,6,18.6,9.4
			C339.4,232.1,349.6,237.8,339,245"/>
		<path class="st6" d="M299.8,196.9c0.6-1,0.9-2.1,0.9-3.4c0-3.8-2.1-7.1-8.6-12.6c-8.1-6.8-10.3-8.5-13.2-11.4
			c-5.6-5.3-8.2-10.3-8.2-16.1c0-4.5,1.8-8.1,4.9-10.5c-1.7,2.2-2.7,5-2.7,8.4c0,5.8,2.7,10.9,8.2,16.1c3,2.9,5.1,4.7,13.2,11.4
			c6.5,5.5,8.6,8.8,8.6,12.6C302.9,193.8,301.8,195.7,299.8,196.9 M305.3,160.3c-0.8,0.9-1.5,1.7-2.2,2.2l-0.5,0.4l-3.5-1.3l0.1-0.9
			c0.1-1,0.1-1.6,0.1-2.5c0-4.7-3.3-8.8-8.5-10.1c-1.7-0.4-3.1-0.3-4.2,0.1c0.7-1.9,3-3.1,6.4-2.3c5.2,1.3,8.5,5.3,8.5,10.1
			c0,0.9,0,1.5-0.1,2.5l-0.1,0.9l3.6,1.3L305.3,160.3z M311,200.3c-4.7,5.7-13.4,8.1-22.8,5.8c-9.8-2.4-17.7-9.3-21.8-19l-0.4-0.9
			l2.2-2.2l0.4,0.9c4.2,9.7,12,16.5,21.8,19C298.5,206,306,204.4,311,200.3 M91.7,114.3c-4-2.8-9.2-4.2-15.2-3.9v48.8
			c-0.9,0.2-2.2,0.5-3.2,0.6v-52.3C81.1,107.2,87.5,109.7,91.7,114.3 M139.4,197.9l3.2,2.8c0,0-3.1,11-17.3,13.5
			c-4.3,0.8-9.3,0.4-12.7-1.9c-1.6-1-2.7-2-4.2-3.5c0.3,0.2,0.7,0.5,1.1,0.7c3.4,2.3,8.4,2.6,12.7,1.9
			C136.3,209,139.4,197.9,139.4,197.9 M104,106.6c7.7,5.9,12.6,15.4,12.6,25c0,12.4-7.4,25-19.9,34c-1.2-1.1-2.4-2-3.5-2.6
			c12.7-9,20.2-21.7,20.2-34.2C113.5,120.6,109.9,112.5,104,106.6 M55.5,210.3l-3.2-2.8l2-0.6c4.5-1.3,17.7-4.5,23.3-5.7l1.2-0.3
			c0,0-2.6-3.5-4.3-10.2c-1.5-5.9-1.2-24.5-1.2-24.5c0.5,0.5,1.2,1.2,1.9,2c0.4,0.5,0.8,0.9,1.2,1.5c0,3.4-0.1,18.6,1.2,23.9
			c1.7,6.7,4.3,10.2,4.3,10.2l-1.2,0.3c-5.6,1.3-18.8,4.4-23.3,5.7L55.5,210.3z M151.9,190.1l0.9,1.7l-1.9,0
			c-2.9-0.1-5.8,0.1-8.7,0.4c-2.3,0.3-7.3,0.7-9.6,1.2l-1.8,0.4l-2.5-2.6l1.8-0.4c2.3-0.5,6.9-1.3,9.2-1.6c2.9-0.3,5.8-0.5,8.7-0.4
			l1.9,0l-0.9-1.7c-4.5-8.1-1.8-56.3-1.8-56.3l3,3C150.1,133.9,147.4,182.1,151.9,190.1 M150.4,120.1c0,4.3-5.2,7.8-10.5,8.1
			c-3,0.2-7.2-2.2-9.8-5.1c1.7,1.5,4.2,2.3,6.8,2.2c5.3-0.3,10.5-3.8,10.5-8.1c0-1.6-0.5-3-1.4-4.2
			C148.5,115,150.4,117.8,150.4,120.1 M219,126.3c2-0.6,4.2-0.9,6.4-0.7C223.2,125.6,221,125.8,219,126.3 M239.5,149.5
			c-1-9.7-4.7-14-11.1-14.5c-2.9-0.3-4.3,0.2-9,3.7c-0.9,0.7-2.4,1-3.4,0.9c-3-0.3-5.8-2.5-5.8-5.3c0-2.3,1.8-4.5,4.5-6.1
			c-1.4,1-2.2,2.2-2.2,3.8c0,2.8,2.8,5,5.8,5.3c1,0.1,2.5-0.2,3.4-0.9c4.7-3.5,6.2-3.9,9-3.7c7.1,0.6,10.9,5.8,11.4,18
			C241.1,150.2,240.3,149.8,239.5,149.5 M265.8,189.7l-3,3.6c-2.8,3.2-5.8,4.3-9.9,4c-4.8-0.4-8.6-3-11.4-7.7
			c-4.5,4.1-9.9,5.9-16.3,5.3c-11.6-1-22.5-11.9-22.5-22.8c0-6.8,3.1-13,7.9-17.2c-3.5,4-5.6,9.2-5.6,14.9
			c0,10.9,10.9,21.8,22.6,22.8c6.3,0.6,11.7-1.2,16.3-5.3c2.7,4.7,6.5,7.3,11.4,7.7c4.1,0.4,6.8-0.8,9.6-4.1L265.8,189.7z
			 M239.6,160c-2.9-2.6-6.5-4.2-10-4.5c-3.5-0.3-6.5,0.4-8.6,1.9c2.2-3.1,6-4.7,10.9-4.2c3.5,0.3,7.1,1.9,10,4.5
			c0,0,0.5,12.9,0.5,14.6c0,6-1.4,9.6-4.1,11.2c1.2-2,1.8-4.9,1.8-8.9C240.1,172.8,239.6,160,239.6,160 M260.1,135.3l2.3-2.3
			c3.1-2.2,4-3.7,4.7-6.8c-0.6,0.1-1.2,0-1.8-0.1c-3.7-0.7-6-3.8-6-7.8c0-4.6,4.6-9.6,9.1-8.8c-4-0.3-6.8,2.3-6.8,6.5
			c0,4,2.3,7.1,6,7.8c0.7,0.1,1.3,0.1,1.8,0.1c-0.7,3.1-2.6,5.9-5.8,8.2l-1.2,0.9l5.2,3.7l0.6-0.4c0.8-0.6,1.5-1.1,2.2-1.7
			c-1.3,1.5-2.8,2.8-4.5,4l-0.6,0.4L260.1,135.3z"/>
		<path class="st7" d="M181.4,111.4l2,2.5l-0.1,1.5c-0.5,6.2-0.8,10.5-0.8,13.5c0,0.7,0,1.1,0,1.9c-0.6-0.1-1.2-0.3-1.9-0.4
			c-0.1-2.3-0.1-2.8-0.1-3.9c0-3,0.3-7.3,0.8-13.5L181.4,111.4z M165.3,139.5c-0.4,0-0.7,0-1,0c-1.8,0.1-2.7,0.6-4.1,2.7l-0.5,0.7
			l-3.3-0.8l-2-2.5l3.3,0.8l0.5-0.7c1.4-2,2.3-2.5,4.1-2.7c0.8-0.1,1.6,0,3,0.2V139.5z M198.6,172.4l2,2.5l0,0.8
			c-0.5,10.1-7,16.6-16.7,16.6c-6.6,0-11.4-2.2-14-6.5c2.8,2.7,6.9,4,12,4c9.8,0,16.2-6.5,16.7-16.6L198.6,172.4z M181.9,176.7
			c0,2.3,0.2,4,0.5,5.2c-1.5-0.5-2.5-2.4-2.5-7.7v-33.9c2.3,0,5.6-0.1,6.8-0.1c5.9-0.4,10.6-3.8,14.1-10.1l0.6-1l2,2.5l-0.6,1
			c-3.6,6.3-8.2,9.7-14.1,10.1c-1.2,0.1-4.5,0.2-6.8,0.1V176.7z"/>
		<path class="st8" d="M73.3,159.9c1.2-0.2,2.7-0.5,3.5-0.7c11.7-3,20.5-15.2,20.5-28.7c0-14.5-9.5-23.6-24-22.9V159.9z M73.3,166.2
			c0,0-0.3,18.6,1.2,24.5c1.7,6.7,4.3,10.2,4.3,10.2l-1.2,0.3c-5.6,1.3-18.8,4.4-23.3,5.7l-2,0.6l0.6-1.9c1.7-5.3,2.2-6.8,2.6-10.9
			c0.2-2.2,0.4-3.9,0.4-9.1V182v-68.8c-2.8-0.5-4.1-2.1-4.9-5.2l-0.2-0.7l0.6-0.4c5-3.1,10.9-5.5,16.9-7.1
			c11.3-2.9,20.3-2.7,27.5,0.9c10.5,5.2,17.5,16.6,17.5,28.1c0,12.5-7.5,25.2-20.2,34.2c3.2,1.8,6.9,5.8,10.8,10.2
			c4.8,5.4,16.3,27.6,26.3,27.6c4.4,0,4.9-2.7,4.9-2.7l4.1-0.1c0,0-3.1,11-17.3,13.5c-4.3,0.8-9.3,0.4-12.7-1.9
			c-3.3-2.2-5-4.1-11.4-12c-4.5-5.7-12.6-16-17-21.9c-2.2-2.9-4.1-5.6-5.8-7.4C74.5,167.4,73.8,166.7,73.3,166.2"/>
		<path class="st8" d="M148.9,187.2l0.9,1.7l-1.9,0c-2.9-0.1-5.8,0.1-8.7,0.4c-2.3,0.3-6.9,1-9.2,1.6l-1.8,0.4l0.6-1.8
			c4.4-8.8,2.1-44.5,0.9-52.3l-0.1-0.8l0.7-0.4c4.6-2.3,10.8-4.3,15.5-4.9l1.3-0.2C147.1,130.9,144.4,179.1,148.9,187.2
			 M147.5,117.1c0,4.3-5.2,7.8-10.5,8.1c-4.7,0.2-9.2-2.8-9.2-7.1c0-4.8,4.8-8.2,10.5-8.5C143,109.3,147.5,112.6,147.5,117.1"/>
		<path class="st8" d="M257.3,164.6c0,0.4,0.2,4.1,0.3,9.9c0.3,12.4,0.9,12.8,6.7,14.8l1.5,0.5l-1.1,1.2c-2.8,3.2-5.5,4.4-9.6,4.1
			c-4.8-0.4-8.6-3-11.4-7.7c-4.5,4.1-9.9,5.9-16.3,5.3c-11.6-1-22.6-11.9-22.6-22.8c0-13.3,11.9-24,25.2-22.9
			c3.7,0.3,6.5,1.2,11.8,3.7c-0.5-12.2-4.3-17.4-11.4-18c-2.9-0.3-4.3,0.2-9,3.7c-0.9,0.7-2.4,1-3.4,0.9c-3-0.3-5.8-2.5-5.8-5.3
			c0-4.8,8.2-6.9,15.8-6.3c11.8,1,22.7,6.8,26.6,14.6c1.7,3.3,2.4,6.8,2.4,13.4V164.6z M241.9,157.7c-2.9-2.6-6.5-4.2-10-4.5
			c-7.9-0.7-12.9,3.8-12.9,11.3c0,10.5,6.5,19.3,13.8,19.9c6.4,0.6,9.7-2.9,9.7-12.2C242.4,170.5,241.9,157.7,241.9,157.7"/>
		<path class="st8" d="M262.4,133l1.2-0.9c3.1-2.2,5.1-5.1,5.8-8.2c-0.6,0.1-1.2,0-1.8-0.1c-3.7-0.7-6-3.8-6-7.8
			c0-4.6,3.2-7.2,7.7-6.4c4.8,0.8,7.8,5.7,7.8,11.6c0,5.7-3.2,11.1-8.9,15.1l-0.6,0.4L262.4,133z"/>
		<path class="st8" d="M281.1,182.8l-0.1,0.5c-0.1,0.5-0.1,0.8-0.1,1.3c0,5.9,4.7,11.5,11.3,13.2c6.3,1.6,10.8-1.6,10.8-6.3
			c0-3.8-2.1-7.1-8.6-12.6c-8.1-6.8-10.3-8.5-13.2-11.4c-5.6-5.3-8.2-10.3-8.2-16.1c0-10.4,9.6-15.9,21.2-13
			c6.2,1.5,13.5,6.7,17.7,12.4l0.4,0.5l-0.3,0.6c-1.7,3.3-4.6,7.1-6.5,8.5l-0.5,0.4l-3.6-1.3l0.1-0.9c0.1-1,0.1-1.6,0.1-2.5
			c0-4.7-3.3-8.8-8.5-10.1c-4-1-6.6,1-6.6,3.5c0,2.9,1.2,4.8,9.1,11c5.6,4.5,8.8,7.1,10.9,8.9c2.2,1.9,3.3,3.1,4.6,4.8
			c4,4.8,5.7,9.2,5.7,13.9c0,12.5-12.4,19.5-26.3,16c-9.8-2.4-17.7-9.3-21.8-19l-0.4-0.9l0.9-0.5c3.8-2.4,10.3-3.4,10.3-3.4
			L281.1,182.8z"/>
		<path class="st8" d="M179.9,174.2c0,6.4,1.4,7.8,3.4,7.8c2.9,0,5.4-2.7,5.4-6.1c0-1.8-0.1-2.7-0.8-4.1l-0.9-1.8l2,0.2
			c3.2,0.4,5.4,0.8,8.7,1.9l0.8,0.3l0,0.8c-0.5,10.1-7,16.6-16.7,16.6c-8.4,0-13.9-3.5-15.6-10.6c-0.7-2.3-0.8-4.9-0.8-9.7v-32.3
			c-1.3-0.3-2.1-0.3-3-0.2c-1.8,0.1-2.7,0.6-4.1,2.7l-0.5,0.7l-3.3-0.8l0.1-0.9c0.5-5.6,4.2-9.1,10.1-10.1c0-0.4-0.1-1.3-0.3-3.4
			c-0.2-1.5-0.2-2.3-0.3-5.3l0-0.7l0.6-0.4c5.2-3.1,10.5-5.5,15.3-7l1.5-0.5l-0.1,1.5c-0.5,6.2-0.8,10.5-0.8,13.5
			c0,1.1,0,1.6,0.1,3.9c4.1,1.1,7.6,1,9.3,0.9c2.9-0.2,5.2-1.2,7.4-3.2l0.5-0.5l3.5,1.6l-0.6,1c-3.6,6.3-8.2,9.7-14.1,10.1
			c-1.2,0.1-4.5,0.2-6.8,0.1V174.2z"/>
		<g class="st9">
			<g>
				<defs>
					<rect id="SVGID_5_" x="38.4" y="206.9" width="260.7" height="48.1"/>
				</defs>
				<clipPath id="SVGID_6_">
					<use xlink:href="#SVGID_5_"  style="overflow:visible;"/>
				</clipPath>
				<path class="st10" d="M40.5,225.2c15.5-5.5,34.7-10.1,55.7-13.5c4,4.7,6.2,7.1,9.8,9.4c5.9,3.9,13.3,4,18.6,3.1
					c2.2-0.4,4.2-0.9,6-1.6c2.3,20.3,18,18.6,18.5,18.6c9.8-0.6,19.7-1,29.4-1.1h0.2c38.4,0.4,78.2,5.7,110.2,13.3
					c2.3,0.6,4.5,1.1,6.5,1.4c1.3-1.5,2.5-3,3.7-4.5c-3-0.1-6.4-0.7-10.2-1.8c-32-7.6-71.7-13-110.2-13.3h-0.2
					c-9.8,0.1-19.6,0.5-29.4,1.1c-0.4,0-16.2,1.7-18.5-18.6c-1.8,0.7-3.8,1.2-6,1.6c-5.3,0.9-12.7,0.8-18.6-3.1
					c-3.6-2.4-5.8-4.7-9.8-9.4c-21.9,3.5-41.9,8.4-57.8,14.2C39.1,222.5,39.8,223.9,40.5,225.2"/>
			</g>
		</g>
		<polygon class="st1" points="140.9,223.1 140.9,210.3 143.2,210.1 143.2,223 		"/>
		<path class="st1" d="M149,222.8c-2.4,0.1-4-1.2-4-4.4c0-2.9,1.4-5.3,4.5-5.5c0.6,0,1.2,0,1.8,0.2l-0.2,2.1c-0.5-0.2-1-0.3-1.6-0.3
			c-1.4,0.1-2.2,1.3-2.2,3c0,1.6,0.6,2.7,2.1,2.6c0.6,0,1.3-0.2,1.7-0.5l0.2,2.1C150.8,222.5,149.9,222.7,149,222.8"/>
		<path class="st1" d="M160.2,217.8l-5.4,0.2c0,1.8,0.8,2.6,2.4,2.5c0.9,0,1.8-0.3,2.6-0.7l0.2,1.9c-0.9,0.4-2,0.7-3.1,0.7
			c-2.8,0.1-4.3-1.3-4.3-4.7c0-2.9,1.5-5.1,4.1-5.2c2.6-0.1,3.7,1.7,3.7,4.1C160.3,217,160.3,217.4,160.2,217.8 M156.5,214.4
			c-0.9,0-1.6,0.8-1.7,1.9l3.2-0.1C158.1,215.1,157.5,214.4,156.5,214.4"/>
		<path class="st1" d="M166,216.7c0,0.9-0.7,1.6-1.5,1.7c-0.8,0-1.5-0.7-1.5-1.6c0-0.9,0.7-1.6,1.5-1.7
			C165.4,215.1,166,215.9,166,216.7"/>
		<path class="st1" d="M173.6,222.1c-4.2,0-5.5-2.9-5.5-6.1c0-4.1,2-6.9,6-7c0.8,0,1.8,0.1,2.5,0.3l-0.2,2.2
			c-0.8-0.2-1.6-0.4-2.4-0.4c-2.2,0-3.3,1.8-3.3,4.3c0,2.8,1.1,4.3,3.5,4.3c0.7,0,1.7-0.2,2.3-0.6l0.3,2.2
			C175.7,221.8,174.7,222,173.6,222.1"/>
		<path class="st1" d="M184.1,221.9c0-0.4,0-1.2,0.1-1.7l0,0c-0.5,1.1-1.5,1.9-3,1.9c-2,0-2.6-1.4-2.6-3v-6.6l2.2,0v6
			c0,1,0.2,1.6,1.1,1.6c1.1,0,2-1.4,2-3v-4.6l2.3,0v9.4L184.1,221.9z"/>
		<path class="st1" d="M190.5,222.2c-0.6,0-1.3-0.1-1.8-0.2l0.1-2c0.5,0.2,1.2,0.3,1.9,0.3c0.9,0,1.4-0.3,1.4-1c0-1.7-3.6-0.8-3.6-4
			c0-1.7,1.3-3,3.7-2.9c0.5,0,1.1,0.1,1.6,0.2l-0.1,1.9c-0.5-0.2-1.1-0.3-1.6-0.3c-0.9,0-1.3,0.3-1.3,0.9c0,1.5,3.6,0.9,3.6,4
			C194.5,221.1,192.9,222.3,190.5,222.2"/>
		<path class="st1" d="M199.3,222.5c-1.9-0.1-2.5-0.9-2.5-3.1v-4.8l-1.5-0.1v-1.9l1.5,0.1v-2.9l2.3-0.6v3.6l2.1,0.1v1.9l-2.1-0.1
			v4.1c0,1.2,0.3,1.6,1,1.6c0.4,0,0.8,0,1.1-0.1v2C200.6,222.5,200,222.5,199.3,222.5"/>
		<path class="st1" d="M208.1,222.8c0-0.5,0-1.1,0.1-1.6l0,0c-0.4,1-1.5,1.7-2.8,1.6c-1.6-0.1-2.5-1.1-2.5-2.6
			c0-2.3,2.1-3.3,5.1-3.2v-0.5c0-1-0.4-1.5-1.7-1.6c-0.8,0-1.9,0.2-2.6,0.6l-0.2-2c0.9-0.3,2-0.5,3.1-0.4c2.8,0.2,3.6,1.4,3.6,3.5
			v3.9c0,0.8,0,1.7,0.1,2.4L208.1,222.8z M207.9,218.6c-2.4-0.1-2.9,0.6-2.9,1.3c0,0.6,0.4,1,1,1.1c1.1,0.1,1.9-1,1.9-2.2V218.6z"/>
		<path class="st1" d="M217.3,216.1c-1.6-0.5-2.4,0.6-2.4,3.2v3.9l-2.3-0.2v-9.4l2.1,0.2c0,0.5-0.1,1.2-0.2,1.9l0,0
			c0.4-1.2,1.3-2.2,2.8-1.9L217.3,216.1z"/>
		<path class="st1" d="M223.8,223.9c0-0.5,0-1.1,0.1-1.6l0,0c-0.5,1-1.4,1.7-2.8,1.5c-2.1-0.2-3.2-2-3.2-4.7c0-3.2,1.7-5.2,4.6-5
			c0.4,0,0.7,0.1,1.1,0.2V210l2.2,0.2v13.9L223.8,223.9z M223.7,216.3c-0.4-0.1-0.8-0.2-1.2-0.3c-1.3-0.1-2.2,0.7-2.2,3
			c0,1.8,0.5,2.7,1.5,2.8c1.2,0.1,1.9-1.3,1.9-2.9V216.3z"/>
		<path class="st1" d="M232.2,219.5c0,0.9-0.7,1.6-1.5,1.5c-0.8-0.1-1.5-0.9-1.5-1.8c0-0.9,0.7-1.6,1.5-1.5
			C231.5,217.8,232.2,218.6,232.2,219.5"/>
		<polygon class="st1" points="242.2,225.9 242.2,220.3 237.2,219.7 237.2,225.3 234.9,225 234.9,212.2 237.2,212.5 237.2,217.6 
			242.2,218.2 242.2,213.1 244.5,213.4 244.5,226.2 		"/>
		<path class="st1" d="M251.6,227.2c0-0.6,0-1.1,0.1-1.6l0,0c-0.4,1-1.5,1.6-2.8,1.4c-1.6-0.2-2.5-1.3-2.5-2.9c0-2.3,2.1-3.2,5-2.7
			v-0.5c0-1-0.4-1.6-1.7-1.8c-0.8-0.1-1.8,0-2.6,0.4l-0.2-2.1c0.9-0.2,2-0.3,3.1-0.1c2.8,0.4,3.6,1.8,3.6,3.8v3.9
			c0,0.8,0,1.7,0.1,2.4L251.6,227.2z M251.4,223c-2.4-0.4-2.9,0.3-2.9,1.1c0,0.6,0.4,1.1,1,1.2c1.1,0.2,1.9-0.9,1.9-2V223z"/>
		<path class="st1" d="M259.5,228.6c-0.4-0.1-0.7-0.1-1.1-0.3v4.5l-2.2-0.4v-14l2.1,0.4c0,0.5,0,1.1-0.1,1.6l0,0
			c0.5-1,1.4-1.5,2.7-1.3c2.1,0.4,3.2,2.2,3.2,5C264,227.3,262.4,229.1,259.5,228.6 M260.2,221c-1.2-0.2-1.9,1.2-1.9,2.8v2.6
			c0.3,0.2,0.7,0.3,1.2,0.4c1.3,0.2,2.2-0.5,2.2-2.8C261.7,222.2,261.2,221.2,260.2,221"/>
		<path class="st1" d="M269.2,230.4c-0.4-0.1-0.7-0.2-1.1-0.3v4.5l-2.2-0.4v-14l2.1,0.4c0,0.5,0,1.1-0.1,1.6l0,0
			c0.5-1,1.4-1.5,2.7-1.2c2,0.4,3.2,2.2,3.2,5C273.7,229.3,272.2,231,269.2,230.4 M269.9,222.8c-1.2-0.2-1.9,1.1-1.9,2.7v2.6
			c0.3,0.2,0.7,0.3,1.2,0.4c1.2,0.2,2.2-0.4,2.2-2.8C271.4,224,270.9,223,269.9,222.8"/>
		<path class="st1" d="M276.6,221.2c-0.8-0.2-1.4-1-1.4-1.8c0-0.8,0.6-1.3,1.4-1.2c0.8,0.2,1.4,0.9,1.4,1.8
			C278,220.8,277.4,221.4,276.6,221.2 M275.5,231.6v-9.4l2.2,0.5v9.4L275.5,231.6z"/>
		<path class="st1" d="M285.3,233.9v-6c0-1-0.2-1.6-1-1.8c-1.1-0.3-2,0.9-2,2.6v4.6l-2.2-0.5v-9.4l2.1,0.5c0,0.4,0,1.2-0.1,1.6l0,0
			c0.5-1,1.5-1.5,2.9-1.2c1.9,0.5,2.5,2,2.5,3.6v6.6L285.3,233.9z"/>
		<path class="st1" d="M296.8,232.6l-5.2-1.5c0,1.8,0.8,2.8,2.3,3.3c0.8,0.2,1.7,0.3,2.5,0.1l0.2,1.9c-0.9,0.1-2,0.1-3-0.2
			c-2.7-0.7-4.2-2.7-4.2-6c0-2.9,1.4-4.6,4-3.9c2.5,0.7,3.6,2.9,3.6,5.2C296.8,231.9,296.8,232.2,296.8,232.6 M293.2,228.1
			c-0.9-0.3-1.5,0.3-1.7,1.4l3.1,0.9C294.7,229.2,294.1,228.4,293.2,228.1"/>
		<path class="st1" d="M300.1,238.2c-0.6-0.2-1.2-0.5-1.8-0.7l0.1-2c0.5,0.3,1.2,0.6,1.8,0.8c0.8,0.3,1.4,0,1.4-0.6
			c0-1.7-3.4-1.8-3.4-5c0-1.7,1.2-2.6,3.6-1.9c0.5,0.2,1,0.4,1.5,0.6l-0.1,1.9c-0.5-0.3-1-0.6-1.6-0.7c-0.8-0.3-1.3,0-1.3,0.6
			c0,1.5,3.4,1.9,3.4,5C303.8,238.1,302.4,238.9,300.1,238.2"/>
		<path class="st1" d="M307.1,240.4c-0.6-0.2-1.2-0.5-1.7-0.8l0.1-2c0.5,0.3,1.2,0.7,1.8,0.9c0.8,0.3,1.4,0.1,1.4-0.5
			c0-1.7-3.4-1.9-3.4-5.1c0-1.7,1.2-2.6,3.5-1.8c0.5,0.2,1,0.4,1.5,0.7l-0.1,1.9c-0.5-0.3-1-0.6-1.5-0.8c-0.8-0.3-1.2,0-1.2,0.5
			c0,1.5,3.4,2,3.4,5.1C310.8,240.4,309.4,241.2,307.1,240.4"/>
		<path class="st5" d="M304.8,265.3c-2.7,0-4.6-2-4.6-4.7c0-2.8,2.1-4.7,4.6-4.7c2.4,0,4.6,1.9,4.6,4.7
			C309.4,263.5,307.2,265.3,304.8,265.3 M304.8,256.8c-2,0-3.6,1.6-3.6,3.8c0,2.1,1.4,3.8,3.6,3.8c2,0,3.6-1.6,3.6-3.8
			C308.4,258.4,306.8,256.8,304.8,256.8 M303.9,263.3H303v-5.2h2c1.2,0,1.9,0.4,1.9,1.5c0,0.9-0.6,1.3-1.3,1.4l1.4,2.3h-1l-1.3-2.2
			h-0.8V263.3z M304.8,260.4c0.6,0,1.2-0.1,1.2-0.8c0-0.6-0.6-0.7-1.1-0.7h-1v1.5H304.8z"/>
	</g>
</g>
</svg>
