<?xml version="1.0" encoding="utf-8"?>
<!-- Generator: Adobe Illustrator 22.1.0, SVG Export Plug-In . SVG Version: 6.00 Build 0)  -->
<svg version="1.1" id="Layer_1" xmlns="http://www.w3.org/2000/svg" xmlns:xlink="http://www.w3.org/1999/xlink" x="0px" y="0px"
	 viewBox="0 0 41.8 50" style="enable-background:new 0 0 41.8 50;" xml:space="preserve">
<style type="text/css">
	.st0{clip-path:url(#SVGID_2_);fill:#1c5259;}
</style>
<g>
	<defs>
		<rect id="SVGID_1_" width="41.8" height="50"/>
	</defs>
	<clipPath id="SVGID_2_">
		<use xlink:href="#SVGID_1_"  style="overflow:visible;"/>
	</clipPath>
	<path class="st0" d="M17.4,45h-7.1C9.6,45,9,45.7,9,46.5s0.6,1.4,1.3,1.4h7.1c0.7,0,1.3-0.6,1.3-1.4S18.2,45,17.4,45 M17.4,46.9
		h-7.1c-0.2,0-0.4-0.2-0.4-0.5s0.2-0.5,0.4-0.5h7.1c0.2,0,0.4,0.2,0.4,0.5S17.6,46.9,17.4,46.9"/>
	<path class="st0" d="M24.1,1.7c-0.5,0-0.8,0.4-0.8,0.8c0,0.5,0.4,0.8,0.8,0.8C24.6,3.4,25,3,25,2.5C25,2.1,24.6,1.7,24.1,1.7"/>
	<path class="st0" d="M39.1,12.5H27.8V3.6c0-2-1.6-3.6-3.7-3.6H3.7C1.6,0,0,1.6,0,3.6v0.9v38.3v3.4c0,2,1.6,3.6,3.7,3.6h20.5
		c2,0,3.7-1.6,3.7-3.6v-3.4V30.8h11.3c1.5,0,2.7-1.2,2.7-2.7V15.3C41.8,13.7,40.6,12.5,39.1,12.5 M1,3.6C1,2.2,2.2,1,3.7,1h20.5
		c1.5,0,2.7,1.2,2.7,2.7v0.4H1V3.6z M24.1,49H3.7C2.2,49,1,47.8,1,46.4v-3h25.8v3C26.8,47.8,25.6,49,24.1,49 M26.8,42.4H1V5.1h25.8
		v7.5h-2.2v-1.7c0-1-0.8-1.8-1.8-1.8h-4.4c-1,0-1.8,0.8-1.8,1.8v1.7h-0.5c-1.5,0-2.7,1.2-2.7,2.7v12.8c0,1.5,1.2,2.7,2.7,2.7h10.7
		V42.4z M17.7,12.5v-1.7c0-0.4,0.4-0.8,0.8-0.8h4.4c0.4,0,0.8,0.4,0.8,0.8v1.7H17.7z M40.8,28.1c0,1-0.8,1.8-1.8,1.8H16.2
		c-1,0-1.8-0.8-1.8-1.8V15.3c0-1,0.8-1.8,1.8-1.8h22.9c1,0,1.8,0.8,1.8,1.8V28.1z"/>
	<path class="st0" d="M27.6,14.2c-4.1,0-7.4,3.3-7.4,7.4s3.3,7.4,7.4,7.4s7.4-3.3,7.4-7.4S31.7,14.2,27.6,14.2 M27.6,28.1
		c-3.6,0-6.4-2.9-6.4-6.4s2.9-6.4,6.4-6.4s6.4,2.9,6.4,6.4S31.2,28.1,27.6,28.1"/>
	<path class="st0" d="M27.6,16c-3.1,0-5.6,2.5-5.6,5.6c0,3.1,2.5,5.6,5.6,5.6s5.6-2.5,5.6-5.6C33.2,18.5,30.7,16,27.6,16 M27.6,26.3
		c-2.6,0-4.7-2.1-4.7-4.7c0-2.6,2.1-4.7,4.7-4.7s4.7,2.1,4.7,4.7C32.3,24.2,30.2,26.3,27.6,26.3"/>
	<path class="st0" d="M39.2,14.7h-4.1c-0.3,0-0.5,0.2-0.5,0.5v1.6c0,0.3,0.2,0.5,0.5,0.5h4.1c0.3,0,0.5-0.2,0.5-0.5v-1.6
		C39.7,14.9,39.5,14.7,39.2,14.7 M38.8,16.3h-3.1v-0.6h3.1V16.3z"/>
	<polygon class="st0" points="36.5,35.6 36.1,38.9 32.8,39.3 36.1,39.7 36.5,43 36.9,39.7 40.2,39.3 36.9,38.9 	"/>
	<polygon class="st0" points="7.5,16.5 7.1,19.8 3.8,20.2 7.1,20.7 7.5,24 7.9,20.7 11.2,20.2 7.9,19.8 	"/>
</g>
</svg>
